# xmcd CD database file
#
# Track frame offsets:
#	150
#	20982
#	36430
#	66829
#	87682
#
# Disc length: 1372 seconds
#
# Revision: 0
# Processed by: cddbd v1.5.2PL0 Copyright (c) Steve Scherf et al.
# Submitted via: CDex 1.70beta2
#
DISCID=48055a05
DTITLE=宇崎竜童 - 涙なんだ
DYEAR=2011
DGENRE=Blues
TTITLE0=01-涙なんだ
TTITLE1=02-パセ ロ ケ パセ
TTITLE2=03-さよならの向う側
TTITLE3=04-涙なんだ【カラオケ】
TTITLE4=05-パセ ロ ケ パセ 【カラオケ】
EXTD=YEAR: 2011
EXTT0=
EXTT1=
EXTT2=
EXTT3=
EXTT4=
PLAYORDER=
